<mxfile host="app.diagrams.net" modified="2021-01-02T14:36:39.342Z" agent="5.0 (X11; Linux x86_64) AppleWebKit/537.36 (KHTML, like Gecko) Chrome/87.0.4280.88 Safari/537.36" etag="75IAzYPSDOOmVo2LU2GS" version="14.1.7" type="gitlab">
  <diagram name="Page-1" id="929967ad-93f9-6ef4-fab6-5d389245f69c">
    <mxGraphModel dx="2250" dy="1343" grid="1" gridSize="10" guides="1" tooltips="1" connect="1" arrows="1" fold="1" page="1" pageScale="1.5" pageWidth="1169" pageHeight="826" background="none" math="0" shadow="0">
      <root>
        <mxCell id="0" style=";html=1;" />
        <mxCell id="1" style=";html=1;" parent="0" />
        <mxCell id="H1896AjHUctSjdvz1oI7-7" value="Game" style="swimlane;fontStyle=1;align=center;verticalAlign=top;childLayout=stackLayout;horizontal=1;startSize=26;horizontalStack=0;resizeParent=1;resizeParentMax=0;resizeLast=0;collapsible=1;marginBottom=0;" parent="1" vertex="1">
          <mxGeometry x="514" y="572" width="160" height="86" as="geometry" />
        </mxCell>
        <mxCell id="BzAsRkTU_7AHKpCbSDMM-81" value="" style="endArrow=open;endFill=1;endSize=12;html=1;" edge="1" parent="H1896AjHUctSjdvz1oI7-7">
          <mxGeometry width="160" relative="1" as="geometry">
            <mxPoint y="7" as="sourcePoint" />
            <mxPoint x="-48" y="7" as="targetPoint" />
          </mxGeometry>
        </mxCell>
        <mxCell id="H1896AjHUctSjdvz1oI7-8" value="- vector&lt;Player&gt;" style="text;strokeColor=none;fillColor=none;align=left;verticalAlign=top;spacingLeft=4;spacingRight=4;overflow=hidden;rotatable=0;points=[[0,0.5],[1,0.5]];portConstraint=eastwest;" parent="H1896AjHUctSjdvz1oI7-7" vertex="1">
          <mxGeometry y="26" width="160" height="26" as="geometry" />
        </mxCell>
        <mxCell id="H1896AjHUctSjdvz1oI7-9" value="" style="line;strokeWidth=1;fillColor=none;align=left;verticalAlign=middle;spacingTop=-1;spacingLeft=3;spacingRight=3;rotatable=0;labelPosition=right;points=[];portConstraint=eastwest;" parent="H1896AjHUctSjdvz1oI7-7" vertex="1">
          <mxGeometry y="52" width="160" height="8" as="geometry" />
        </mxCell>
        <mxCell id="3jf83I4nimgOCl_raEro-9" value="+ add_player(Player)" style="text;strokeColor=none;fillColor=none;align=left;verticalAlign=top;spacingLeft=4;spacingRight=4;overflow=hidden;rotatable=0;points=[[0,0.5],[1,0.5]];portConstraint=eastwest;" parent="H1896AjHUctSjdvz1oI7-7" vertex="1">
          <mxGeometry y="60" width="160" height="26" as="geometry" />
        </mxCell>
        <mxCell id="H1896AjHUctSjdvz1oI7-14" value="Dice" style="swimlane;fontStyle=1;align=center;verticalAlign=top;childLayout=stackLayout;horizontal=1;startSize=26;horizontalStack=0;resizeParent=1;resizeParentMax=0;resizeLast=0;collapsible=1;marginBottom=0;" parent="1" vertex="1">
          <mxGeometry x="334" y="229" width="160" height="86" as="geometry" />
        </mxCell>
        <mxCell id="H1896AjHUctSjdvz1oI7-15" value="- value" style="text;strokeColor=none;fillColor=none;align=left;verticalAlign=top;spacingLeft=4;spacingRight=4;overflow=hidden;rotatable=0;points=[[0,0.5],[1,0.5]];portConstraint=eastwest;" parent="H1896AjHUctSjdvz1oI7-14" vertex="1">
          <mxGeometry y="26" width="160" height="26" as="geometry" />
        </mxCell>
        <mxCell id="H1896AjHUctSjdvz1oI7-16" value="" style="line;strokeWidth=1;fillColor=none;align=left;verticalAlign=middle;spacingTop=-1;spacingLeft=3;spacingRight=3;rotatable=0;labelPosition=right;points=[];portConstraint=eastwest;" parent="H1896AjHUctSjdvz1oI7-14" vertex="1">
          <mxGeometry y="52" width="160" height="8" as="geometry" />
        </mxCell>
        <mxCell id="H1896AjHUctSjdvz1oI7-17" value="+ roll()" style="text;strokeColor=none;fillColor=none;align=left;verticalAlign=top;spacingLeft=4;spacingRight=4;overflow=hidden;rotatable=0;points=[[0,0.5],[1,0.5]];portConstraint=eastwest;" parent="H1896AjHUctSjdvz1oI7-14" vertex="1">
          <mxGeometry y="60" width="160" height="26" as="geometry" />
        </mxCell>
        <mxCell id="H1896AjHUctSjdvz1oI7-35" value="ConnectionServer" style="swimlane;fontStyle=1;align=center;verticalAlign=top;childLayout=stackLayout;horizontal=1;startSize=26;horizontalStack=0;resizeParent=1;resizeParentMax=0;resizeLast=0;collapsible=1;marginBottom=0;" parent="1" vertex="1">
          <mxGeometry x="734" y="439" width="160" height="86" as="geometry" />
        </mxCell>
        <mxCell id="H1896AjHUctSjdvz1oI7-36" value="- map&lt;ConnectionRoom&gt;" style="text;strokeColor=none;fillColor=none;align=left;verticalAlign=top;spacingLeft=4;spacingRight=4;overflow=hidden;rotatable=0;points=[[0,0.5],[1,0.5]];portConstraint=eastwest;" parent="H1896AjHUctSjdvz1oI7-35" vertex="1">
          <mxGeometry y="26" width="160" height="26" as="geometry" />
        </mxCell>
        <mxCell id="H1896AjHUctSjdvz1oI7-37" value="" style="line;strokeWidth=1;fillColor=none;align=left;verticalAlign=middle;spacingTop=-1;spacingLeft=3;spacingRight=3;rotatable=0;labelPosition=right;points=[];portConstraint=eastwest;" parent="H1896AjHUctSjdvz1oI7-35" vertex="1">
          <mxGeometry y="52" width="160" height="8" as="geometry" />
        </mxCell>
        <mxCell id="H1896AjHUctSjdvz1oI7-38" value="-Â accept()" style="text;strokeColor=none;fillColor=none;align=left;verticalAlign=top;spacingLeft=4;spacingRight=4;overflow=hidden;rotatable=0;points=[[0,0.5],[1,0.5]];portConstraint=eastwest;" parent="H1896AjHUctSjdvz1oI7-35" vertex="1">
          <mxGeometry y="60" width="160" height="26" as="geometry" />
        </mxCell>
        <mxCell id="BzAsRkTU_7AHKpCbSDMM-78" value="" style="endArrow=open;endFill=1;endSize=12;html=1;entryX=0.445;entryY=0;entryDx=0;entryDy=0;entryPerimeter=0;" edge="1" parent="H1896AjHUctSjdvz1oI7-35" target="BzAsRkTU_7AHKpCbSDMM-22">
          <mxGeometry width="160" relative="1" as="geometry">
            <mxPoint x="70" y="86" as="sourcePoint" />
            <mxPoint x="230" y="86" as="targetPoint" />
          </mxGeometry>
        </mxCell>
        <mxCell id="H1896AjHUctSjdvz1oI7-39" value="Ticket&#xa;" style="swimlane;fontStyle=1;align=center;verticalAlign=top;childLayout=stackLayout;horizontal=1;startSize=26;horizontalStack=0;resizeParent=1;resizeParentMax=0;resizeLast=0;collapsible=1;marginBottom=0;" parent="1" vertex="1">
          <mxGeometry x="94" y="572" width="160" height="112" as="geometry" />
        </mxCell>
        <mxCell id="H1896AjHUctSjdvz1oI7-40" value="- vector&lt;Column&gt;" style="text;strokeColor=none;fillColor=none;align=left;verticalAlign=top;spacingLeft=4;spacingRight=4;overflow=hidden;rotatable=0;points=[[0,0.5],[1,0.5]];portConstraint=eastwest;" parent="H1896AjHUctSjdvz1oI7-39" vertex="1">
          <mxGeometry y="26" width="160" height="26" as="geometry" />
        </mxCell>
        <mxCell id="H1896AjHUctSjdvz1oI7-41" value="" style="line;strokeWidth=1;fillColor=none;align=left;verticalAlign=middle;spacingTop=-1;spacingLeft=3;spacingRight=3;rotatable=0;labelPosition=right;points=[];portConstraint=eastwest;" parent="H1896AjHUctSjdvz1oI7-39" vertex="1">
          <mxGeometry y="52" width="160" height="8" as="geometry" />
        </mxCell>
        <mxCell id="H1896AjHUctSjdvz1oI7-42" value="+ calculate_score()" style="text;strokeColor=none;fillColor=none;align=left;verticalAlign=top;spacingLeft=4;spacingRight=4;overflow=hidden;rotatable=0;points=[[0,0.5],[1,0.5]];portConstraint=eastwest;" parent="H1896AjHUctSjdvz1oI7-39" vertex="1">
          <mxGeometry y="60" width="160" height="26" as="geometry" />
        </mxCell>
        <mxCell id="3jf83I4nimgOCl_raEro-13" value="+ get_values()" style="text;strokeColor=none;fillColor=none;align=left;verticalAlign=top;spacingLeft=4;spacingRight=4;overflow=hidden;rotatable=0;points=[[0,0.5],[1,0.5]];portConstraint=eastwest;" parent="H1896AjHUctSjdvz1oI7-39" vertex="1">
          <mxGeometry y="86" width="160" height="26" as="geometry" />
        </mxCell>
        <mxCell id="BzAsRkTU_7AHKpCbSDMM-86" value="" style="endArrow=open;endFill=1;endSize=12;html=1;entryX=0.437;entryY=0;entryDx=0;entryDy=0;entryPerimeter=0;" edge="1" parent="H1896AjHUctSjdvz1oI7-39" target="H1896AjHUctSjdvz1oI7-47">
          <mxGeometry width="160" relative="1" as="geometry">
            <mxPoint x="70" y="112" as="sourcePoint" />
            <mxPoint x="230" y="112" as="targetPoint" />
          </mxGeometry>
        </mxCell>
        <mxCell id="H1896AjHUctSjdvz1oI7-47" value="Column&#xa;" style="swimlane;fontStyle=1;align=center;verticalAlign=top;childLayout=stackLayout;horizontal=1;startSize=26;horizontalStack=0;resizeParent=1;resizeParentMax=0;resizeLast=0;collapsible=1;marginBottom=0;" parent="1" vertex="1">
          <mxGeometry x="94" y="719" width="160" height="138" as="geometry" />
        </mxCell>
        <mxCell id="H1896AjHUctSjdvz1oI7-48" value="- vector&lt;Field&gt;" style="text;strokeColor=none;fillColor=none;align=left;verticalAlign=top;spacingLeft=4;spacingRight=4;overflow=hidden;rotatable=0;points=[[0,0.5],[1,0.5]];portConstraint=eastwest;" parent="H1896AjHUctSjdvz1oI7-47" vertex="1">
          <mxGeometry y="26" width="160" height="26" as="geometry" />
        </mxCell>
        <mxCell id="H1896AjHUctSjdvz1oI7-49" value="" style="line;strokeWidth=1;fillColor=none;align=left;verticalAlign=middle;spacingTop=-1;spacingLeft=3;spacingRight=3;rotatable=0;labelPosition=right;points=[];portConstraint=eastwest;" parent="H1896AjHUctSjdvz1oI7-47" vertex="1">
          <mxGeometry y="52" width="160" height="8" as="geometry" />
        </mxCell>
        <mxCell id="H1896AjHUctSjdvz1oI7-50" value="+ bool valid_order()" style="text;strokeColor=none;fillColor=none;align=left;verticalAlign=top;spacingLeft=4;spacingRight=4;overflow=hidden;rotatable=0;points=[[0,0.5],[1,0.5]];portConstraint=eastwest;fontStyle=2" parent="H1896AjHUctSjdvz1oI7-47" vertex="1">
          <mxGeometry y="60" width="160" height="26" as="geometry" />
        </mxCell>
        <mxCell id="3jf83I4nimgOCl_raEro-11" value="+ bool write_in_column()" style="text;strokeColor=none;fillColor=none;align=left;verticalAlign=top;spacingLeft=4;spacingRight=4;overflow=hidden;rotatable=0;points=[[0,0.5],[1,0.5]];portConstraint=eastwest;fontStyle=2" parent="H1896AjHUctSjdvz1oI7-47" vertex="1">
          <mxGeometry y="86" width="160" height="26" as="geometry" />
        </mxCell>
        <mxCell id="3jf83I4nimgOCl_raEro-12" value="+ tuple calculate_sum()" style="text;strokeColor=none;fillColor=none;align=left;verticalAlign=top;spacingLeft=4;spacingRight=4;overflow=hidden;rotatable=0;points=[[0,0.5],[1,0.5]];portConstraint=eastwest;" parent="H1896AjHUctSjdvz1oI7-47" vertex="1">
          <mxGeometry y="112" width="160" height="26" as="geometry" />
        </mxCell>
        <mxCell id="H1896AjHUctSjdvz1oI7-51" value="Field" style="swimlane;fontStyle=1;align=center;verticalAlign=top;childLayout=stackLayout;horizontal=1;startSize=26;horizontalStack=0;resizeParent=1;resizeParentMax=0;resizeLast=0;collapsible=1;marginBottom=0;" parent="1" vertex="1">
          <mxGeometry x="94" y="889" width="160" height="86" as="geometry" />
        </mxCell>
        <mxCell id="H1896AjHUctSjdvz1oI7-52" value="- value" style="text;strokeColor=none;fillColor=none;align=left;verticalAlign=top;spacingLeft=4;spacingRight=4;overflow=hidden;rotatable=0;points=[[0,0.5],[1,0.5]];portConstraint=eastwest;" parent="H1896AjHUctSjdvz1oI7-51" vertex="1">
          <mxGeometry y="26" width="160" height="26" as="geometry" />
        </mxCell>
        <mxCell id="H1896AjHUctSjdvz1oI7-53" value="" style="line;strokeWidth=1;fillColor=none;align=left;verticalAlign=middle;spacingTop=-1;spacingLeft=3;spacingRight=3;rotatable=0;labelPosition=right;points=[];portConstraint=eastwest;" parent="H1896AjHUctSjdvz1oI7-51" vertex="1">
          <mxGeometry y="52" width="160" height="8" as="geometry" />
        </mxCell>
        <mxCell id="H1896AjHUctSjdvz1oI7-54" value="+ bool valid_input()" style="text;strokeColor=none;fillColor=none;align=left;verticalAlign=top;spacingLeft=4;spacingRight=4;overflow=hidden;rotatable=0;points=[[0,0.5],[1,0.5]];portConstraint=eastwest;fontStyle=2" parent="H1896AjHUctSjdvz1oI7-51" vertex="1">
          <mxGeometry y="60" width="160" height="26" as="geometry" />
        </mxCell>
        <mxCell id="H1896AjHUctSjdvz1oI7-63" value="HumanPlayer" style="swimlane;fontStyle=1;align=center;verticalAlign=top;childLayout=stackLayout;horizontal=1;startSize=26;horizontalStack=0;resizeParent=1;resizeParentMax=0;resizeLast=0;collapsible=1;marginBottom=0;" parent="1" vertex="1">
          <mxGeometry x="305" y="769" width="160" height="60" as="geometry" />
        </mxCell>
        <mxCell id="BzAsRkTU_7AHKpCbSDMM-72" value="Extends" style="endArrow=block;endSize=16;endFill=0;html=1;entryX=0.489;entryY=1.045;entryDx=0;entryDy=0;entryPerimeter=0;" edge="1" parent="H1896AjHUctSjdvz1oI7-63" target="3jf83I4nimgOCl_raEro-5">
          <mxGeometry width="160" relative="1" as="geometry">
            <mxPoint x="79" as="sourcePoint" />
            <mxPoint x="239" as="targetPoint" />
          </mxGeometry>
        </mxCell>
        <mxCell id="H1896AjHUctSjdvz1oI7-65" value="" style="line;strokeWidth=1;fillColor=none;align=left;verticalAlign=middle;spacingTop=-1;spacingLeft=3;spacingRight=3;rotatable=0;labelPosition=right;points=[];portConstraint=eastwest;" parent="H1896AjHUctSjdvz1oI7-63" vertex="1">
          <mxGeometry y="26" width="160" height="8" as="geometry" />
        </mxCell>
        <mxCell id="H1896AjHUctSjdvz1oI7-66" value="+ bool write_on_ticket()" style="text;strokeColor=none;fillColor=none;align=left;verticalAlign=top;spacingLeft=4;spacingRight=4;overflow=hidden;rotatable=0;points=[[0,0.5],[1,0.5]];portConstraint=eastwest;" parent="H1896AjHUctSjdvz1oI7-63" vertex="1">
          <mxGeometry y="34" width="160" height="26" as="geometry" />
        </mxCell>
        <mxCell id="3jf83I4nimgOCl_raEro-2" value="Player" style="swimlane;fontStyle=1;align=center;verticalAlign=top;childLayout=stackLayout;horizontal=1;startSize=26;horizontalStack=0;resizeParent=1;resizeParentMax=0;resizeLast=0;collapsible=1;marginBottom=0;" parent="1" vertex="1">
          <mxGeometry x="305" y="572" width="160" height="164" as="geometry" />
        </mxCell>
        <mxCell id="BzAsRkTU_7AHKpCbSDMM-83" value="" style="endArrow=open;endFill=1;endSize=12;html=1;entryX=0.998;entryY=0.061;entryDx=0;entryDy=0;entryPerimeter=0;" edge="1" parent="3jf83I4nimgOCl_raEro-2" target="H1896AjHUctSjdvz1oI7-39">
          <mxGeometry width="160" relative="1" as="geometry">
            <mxPoint x="-1" y="7" as="sourcePoint" />
            <mxPoint x="159" y="7" as="targetPoint" />
          </mxGeometry>
        </mxCell>
        <mxCell id="3jf83I4nimgOCl_raEro-3" value="- FIeld field_announced" style="text;strokeColor=none;fillColor=none;align=left;verticalAlign=top;spacingLeft=4;spacingRight=4;overflow=hidden;rotatable=0;points=[[0,0.5],[1,0.5]];portConstraint=eastwest;" parent="3jf83I4nimgOCl_raEro-2" vertex="1">
          <mxGeometry y="26" width="160" height="26" as="geometry" />
        </mxCell>
        <mxCell id="BzAsRkTU_7AHKpCbSDMM-2" value="- bool announcement" style="text;strokeColor=none;fillColor=none;align=left;verticalAlign=top;spacingLeft=4;spacingRight=4;overflow=hidden;rotatable=0;points=[[0,0.5],[1,0.5]];portConstraint=eastwest;" vertex="1" parent="3jf83I4nimgOCl_raEro-2">
          <mxGeometry y="52" width="160" height="26" as="geometry" />
        </mxCell>
        <mxCell id="BzAsRkTU_7AHKpCbSDMM-4" value="- int number_of_filled_cols&#xa;&#xa;" style="text;strokeColor=none;fillColor=none;align=left;verticalAlign=top;spacingLeft=4;spacingRight=4;overflow=hidden;rotatable=0;points=[[0,0.5],[1,0.5]];portConstraint=eastwest;" vertex="1" parent="3jf83I4nimgOCl_raEro-2">
          <mxGeometry y="78" width="160" height="26" as="geometry" />
        </mxCell>
        <mxCell id="BzAsRkTU_7AHKpCbSDMM-82" value="- Ticket&#xa;" style="text;strokeColor=none;fillColor=none;align=left;verticalAlign=top;spacingLeft=4;spacingRight=4;overflow=hidden;rotatable=0;points=[[0,0.5],[1,0.5]];portConstraint=eastwest;" vertex="1" parent="3jf83I4nimgOCl_raEro-2">
          <mxGeometry y="104" width="160" height="26" as="geometry" />
        </mxCell>
        <mxCell id="3jf83I4nimgOCl_raEro-4" value="" style="line;strokeWidth=1;fillColor=none;align=left;verticalAlign=middle;spacingTop=-1;spacingLeft=3;spacingRight=3;rotatable=0;labelPosition=right;points=[];portConstraint=eastwest;" parent="3jf83I4nimgOCl_raEro-2" vertex="1">
          <mxGeometry y="130" width="160" height="8" as="geometry" />
        </mxCell>
        <mxCell id="3jf83I4nimgOCl_raEro-5" value="+ bool write_on_ticket()" style="text;strokeColor=none;fillColor=none;align=left;verticalAlign=top;spacingLeft=4;spacingRight=4;overflow=hidden;rotatable=0;points=[[0,0.5],[1,0.5]];portConstraint=eastwest;fontStyle=2" parent="3jf83I4nimgOCl_raEro-2" vertex="1">
          <mxGeometry y="138" width="160" height="26" as="geometry" />
        </mxCell>
        <mxCell id="BzAsRkTU_7AHKpCbSDMM-6" value="ConnectionParticipant" style="swimlane;fontStyle=1;childLayout=stackLayout;horizontal=1;startSize=26;fillColor=none;horizontalStack=0;resizeParent=1;resizeParentMax=0;resizeLast=0;collapsible=1;marginBottom=0;" vertex="1" parent="1">
          <mxGeometry x="984" y="572" width="140" height="86" as="geometry" />
        </mxCell>
        <mxCell id="BzAsRkTU_7AHKpCbSDMM-7" value="- Player" style="text;strokeColor=none;fillColor=none;align=left;verticalAlign=top;spacingLeft=4;spacingRight=4;overflow=hidden;rotatable=0;points=[[0,0.5],[1,0.5]];portConstraint=eastwest;" vertex="1" parent="BzAsRkTU_7AHKpCbSDMM-6">
          <mxGeometry y="26" width="140" height="26" as="geometry" />
        </mxCell>
        <mxCell id="BzAsRkTU_7AHKpCbSDMM-12" value="" style="line;strokeWidth=1;fillColor=none;align=left;verticalAlign=middle;spacingTop=-1;spacingLeft=3;spacingRight=3;rotatable=0;labelPosition=right;points=[];portConstraint=eastwest;" vertex="1" parent="BzAsRkTU_7AHKpCbSDMM-6">
          <mxGeometry y="52" width="140" height="8" as="geometry" />
        </mxCell>
        <mxCell id="BzAsRkTU_7AHKpCbSDMM-14" value="+ deliver()" style="text;strokeColor=none;fillColor=none;align=left;verticalAlign=top;spacingLeft=4;spacingRight=4;overflow=hidden;rotatable=0;points=[[0,0.5],[1,0.5]];portConstraint=eastwest;fontStyle=2" vertex="1" parent="BzAsRkTU_7AHKpCbSDMM-6">
          <mxGeometry y="60" width="140" height="26" as="geometry" />
        </mxCell>
        <mxCell id="BzAsRkTU_7AHKpCbSDMM-15" value="ConnectionSession" style="swimlane;fontStyle=1;align=center;verticalAlign=top;childLayout=stackLayout;horizontal=1;startSize=26;horizontalStack=0;resizeParent=1;resizeParentMax=0;resizeLast=0;collapsible=1;marginBottom=0;" vertex="1" parent="1">
          <mxGeometry x="1194" y="569" width="160" height="190" as="geometry" />
        </mxCell>
        <mxCell id="BzAsRkTU_7AHKpCbSDMM-16" value="- Socket" style="text;strokeColor=none;fillColor=none;align=left;verticalAlign=top;spacingLeft=4;spacingRight=4;overflow=hidden;rotatable=0;points=[[0,0.5],[1,0.5]];portConstraint=eastwest;" vertex="1" parent="BzAsRkTU_7AHKpCbSDMM-15">
          <mxGeometry y="26" width="160" height="26" as="geometry" />
        </mxCell>
        <mxCell id="BzAsRkTU_7AHKpCbSDMM-19" value="- Room" style="text;strokeColor=none;fillColor=none;align=left;verticalAlign=top;spacingLeft=4;spacingRight=4;overflow=hidden;rotatable=0;points=[[0,0.5],[1,0.5]];portConstraint=eastwest;" vertex="1" parent="BzAsRkTU_7AHKpCbSDMM-15">
          <mxGeometry y="52" width="160" height="26" as="geometry" />
        </mxCell>
        <mxCell id="BzAsRkTU_7AHKpCbSDMM-52" value="- ThreadSafeQueue" style="text;strokeColor=none;fillColor=none;align=left;verticalAlign=top;spacingLeft=4;spacingRight=4;overflow=hidden;rotatable=0;points=[[0,0.5],[1,0.5]];portConstraint=eastwest;" vertex="1" parent="BzAsRkTU_7AHKpCbSDMM-15">
          <mxGeometry y="78" width="160" height="26" as="geometry" />
        </mxCell>
        <mxCell id="BzAsRkTU_7AHKpCbSDMM-17" value="" style="line;strokeWidth=1;fillColor=none;align=left;verticalAlign=middle;spacingTop=-1;spacingLeft=3;spacingRight=3;rotatable=0;labelPosition=right;points=[];portConstraint=eastwest;" vertex="1" parent="BzAsRkTU_7AHKpCbSDMM-15">
          <mxGeometry y="104" width="160" height="8" as="geometry" />
        </mxCell>
        <mxCell id="BzAsRkTU_7AHKpCbSDMM-18" value="+ read()" style="text;strokeColor=none;fillColor=none;align=left;verticalAlign=top;spacingLeft=4;spacingRight=4;overflow=hidden;rotatable=0;points=[[0,0.5],[1,0.5]];portConstraint=eastwest;" vertex="1" parent="BzAsRkTU_7AHKpCbSDMM-15">
          <mxGeometry y="112" width="160" height="26" as="geometry" />
        </mxCell>
        <mxCell id="BzAsRkTU_7AHKpCbSDMM-20" value="+ write()" style="text;strokeColor=none;fillColor=none;align=left;verticalAlign=top;spacingLeft=4;spacingRight=4;overflow=hidden;rotatable=0;points=[[0,0.5],[1,0.5]];portConstraint=eastwest;" vertex="1" parent="BzAsRkTU_7AHKpCbSDMM-15">
          <mxGeometry y="138" width="160" height="26" as="geometry" />
        </mxCell>
        <mxCell id="BzAsRkTU_7AHKpCbSDMM-21" value="+ parse()" style="text;strokeColor=none;fillColor=none;align=left;verticalAlign=top;spacingLeft=4;spacingRight=4;overflow=hidden;rotatable=0;points=[[0,0.5],[1,0.5]];portConstraint=eastwest;" vertex="1" parent="BzAsRkTU_7AHKpCbSDMM-15">
          <mxGeometry y="164" width="160" height="26" as="geometry" />
        </mxCell>
        <mxCell id="BzAsRkTU_7AHKpCbSDMM-22" value="ConnectionRoom" style="swimlane;fontStyle=1;align=center;verticalAlign=top;childLayout=stackLayout;horizontal=1;startSize=26;horizontalStack=0;resizeParent=1;resizeParentMax=0;resizeLast=0;collapsible=1;marginBottom=0;" vertex="1" parent="1">
          <mxGeometry x="724" y="572" width="180" height="164" as="geometry" />
        </mxCell>
        <mxCell id="BzAsRkTU_7AHKpCbSDMM-80" value="" style="endArrow=open;endFill=1;endSize=12;html=1;entryX=0.996;entryY=0.079;entryDx=0;entryDy=0;entryPerimeter=0;" edge="1" parent="BzAsRkTU_7AHKpCbSDMM-22" target="H1896AjHUctSjdvz1oI7-7">
          <mxGeometry width="160" relative="1" as="geometry">
            <mxPoint y="7" as="sourcePoint" />
            <mxPoint x="160" y="7" as="targetPoint" />
          </mxGeometry>
        </mxCell>
        <mxCell id="BzAsRkTU_7AHKpCbSDMM-23" value="- set&lt;ConnectionParticipant&gt;" style="text;strokeColor=none;fillColor=none;align=left;verticalAlign=top;spacingLeft=4;spacingRight=4;overflow=hidden;rotatable=0;points=[[0,0.5],[1,0.5]];portConstraint=eastwest;" vertex="1" parent="BzAsRkTU_7AHKpCbSDMM-22">
          <mxGeometry y="26" width="180" height="26" as="geometry" />
        </mxCell>
        <mxCell id="BzAsRkTU_7AHKpCbSDMM-26" value="- Game" style="text;strokeColor=none;fillColor=none;align=left;verticalAlign=top;spacingLeft=4;spacingRight=4;overflow=hidden;rotatable=0;points=[[0,0.5],[1,0.5]];portConstraint=eastwest;" vertex="1" parent="BzAsRkTU_7AHKpCbSDMM-22">
          <mxGeometry y="52" width="180" height="26" as="geometry" />
        </mxCell>
        <mxCell id="BzAsRkTU_7AHKpCbSDMM-24" value="" style="line;strokeWidth=1;fillColor=none;align=left;verticalAlign=middle;spacingTop=-1;spacingLeft=3;spacingRight=3;rotatable=0;labelPosition=right;points=[];portConstraint=eastwest;" vertex="1" parent="BzAsRkTU_7AHKpCbSDMM-22">
          <mxGeometry y="78" width="180" height="8" as="geometry" />
        </mxCell>
        <mxCell id="BzAsRkTU_7AHKpCbSDMM-25" value="+ join()" style="text;strokeColor=none;fillColor=none;align=left;verticalAlign=top;spacingLeft=4;spacingRight=4;overflow=hidden;rotatable=0;points=[[0,0.5],[1,0.5]];portConstraint=eastwest;" vertex="1" parent="BzAsRkTU_7AHKpCbSDMM-22">
          <mxGeometry y="86" width="180" height="26" as="geometry" />
        </mxCell>
        <mxCell id="BzAsRkTU_7AHKpCbSDMM-27" value="+ leave()" style="text;strokeColor=none;fillColor=none;align=left;verticalAlign=top;spacingLeft=4;spacingRight=4;overflow=hidden;rotatable=0;points=[[0,0.5],[1,0.5]];portConstraint=eastwest;" vertex="1" parent="BzAsRkTU_7AHKpCbSDMM-22">
          <mxGeometry y="112" width="180" height="26" as="geometry" />
        </mxCell>
        <mxCell id="BzAsRkTU_7AHKpCbSDMM-28" value="+ deliver()" style="text;strokeColor=none;fillColor=none;align=left;verticalAlign=top;spacingLeft=4;spacingRight=4;overflow=hidden;rotatable=0;points=[[0,0.5],[1,0.5]];portConstraint=eastwest;" vertex="1" parent="BzAsRkTU_7AHKpCbSDMM-22">
          <mxGeometry y="138" width="180" height="26" as="geometry" />
        </mxCell>
        <mxCell id="BzAsRkTU_7AHKpCbSDMM-33" value="Connection&#xa;" style="swimlane;fontStyle=1;align=center;verticalAlign=top;childLayout=stackLayout;horizontal=1;startSize=26;horizontalStack=0;resizeParent=1;resizeParentMax=0;resizeLast=0;collapsible=1;marginBottom=0;" vertex="1" parent="1">
          <mxGeometry x="734" y="229" width="160" height="164" as="geometry" />
        </mxCell>
        <mxCell id="BzAsRkTU_7AHKpCbSDMM-34" value="- Socket" style="text;strokeColor=none;fillColor=none;align=left;verticalAlign=top;spacingLeft=4;spacingRight=4;overflow=hidden;rotatable=0;points=[[0,0.5],[1,0.5]];portConstraint=eastwest;" vertex="1" parent="BzAsRkTU_7AHKpCbSDMM-33">
          <mxGeometry y="26" width="160" height="26" as="geometry" />
        </mxCell>
        <mxCell id="BzAsRkTU_7AHKpCbSDMM-37" value="- read_callback(Message)" style="text;strokeColor=none;fillColor=none;align=left;verticalAlign=top;spacingLeft=4;spacingRight=4;overflow=hidden;rotatable=0;points=[[0,0.5],[1,0.5]];portConstraint=eastwest;" vertex="1" parent="BzAsRkTU_7AHKpCbSDMM-33">
          <mxGeometry y="52" width="160" height="26" as="geometry" />
        </mxCell>
        <mxCell id="BzAsRkTU_7AHKpCbSDMM-54" value="- ThreadSafeQueue" style="text;strokeColor=none;fillColor=none;align=left;verticalAlign=top;spacingLeft=4;spacingRight=4;overflow=hidden;rotatable=0;points=[[0,0.5],[1,0.5]];portConstraint=eastwest;" vertex="1" parent="BzAsRkTU_7AHKpCbSDMM-33">
          <mxGeometry y="78" width="160" height="26" as="geometry" />
        </mxCell>
        <mxCell id="BzAsRkTU_7AHKpCbSDMM-35" value="" style="line;strokeWidth=1;fillColor=none;align=left;verticalAlign=middle;spacingTop=-1;spacingLeft=3;spacingRight=3;rotatable=0;labelPosition=right;points=[];portConstraint=eastwest;" vertex="1" parent="BzAsRkTU_7AHKpCbSDMM-33">
          <mxGeometry y="104" width="160" height="8" as="geometry" />
        </mxCell>
        <mxCell id="BzAsRkTU_7AHKpCbSDMM-36" value="- close()" style="text;strokeColor=none;fillColor=none;align=left;verticalAlign=top;spacingLeft=4;spacingRight=4;overflow=hidden;rotatable=0;points=[[0,0.5],[1,0.5]];portConstraint=eastwest;" vertex="1" parent="BzAsRkTU_7AHKpCbSDMM-33">
          <mxGeometry y="112" width="160" height="26" as="geometry" />
        </mxCell>
        <mxCell id="BzAsRkTU_7AHKpCbSDMM-38" value="+ write(Message)" style="text;strokeColor=none;fillColor=none;align=left;verticalAlign=top;spacingLeft=4;spacingRight=4;overflow=hidden;rotatable=0;points=[[0,0.5],[1,0.5]];portConstraint=eastwest;" vertex="1" parent="BzAsRkTU_7AHKpCbSDMM-33">
          <mxGeometry y="138" width="160" height="26" as="geometry" />
        </mxCell>
        <mxCell id="BzAsRkTU_7AHKpCbSDMM-39" value="MessageHeader" style="swimlane;fontStyle=1;align=center;verticalAlign=top;childLayout=stackLayout;horizontal=1;startSize=26;horizontalStack=0;resizeParent=1;resizeParentMax=0;resizeLast=0;collapsible=1;marginBottom=0;" vertex="1" parent="1">
          <mxGeometry x="1504" y="229" width="160" height="164" as="geometry" />
        </mxCell>
        <mxCell id="BzAsRkTU_7AHKpCbSDMM-40" value="- msg_id" style="text;strokeColor=none;fillColor=none;align=left;verticalAlign=top;spacingLeft=4;spacingRight=4;overflow=hidden;rotatable=0;points=[[0,0.5],[1,0.5]];portConstraint=eastwest;" vertex="1" parent="BzAsRkTU_7AHKpCbSDMM-39">
          <mxGeometry y="26" width="160" height="26" as="geometry" />
        </mxCell>
        <mxCell id="BzAsRkTU_7AHKpCbSDMM-43" value="- owner_id" style="text;strokeColor=none;fillColor=none;align=left;verticalAlign=top;spacingLeft=4;spacingRight=4;overflow=hidden;rotatable=0;points=[[0,0.5],[1,0.5]];portConstraint=eastwest;" vertex="1" parent="BzAsRkTU_7AHKpCbSDMM-39">
          <mxGeometry y="52" width="160" height="26" as="geometry" />
        </mxCell>
        <mxCell id="BzAsRkTU_7AHKpCbSDMM-44" value="- game_id&#xa;" style="text;strokeColor=none;fillColor=none;align=left;verticalAlign=top;spacingLeft=4;spacingRight=4;overflow=hidden;rotatable=0;points=[[0,0.5],[1,0.5]];portConstraint=eastwest;" vertex="1" parent="BzAsRkTU_7AHKpCbSDMM-39">
          <mxGeometry y="78" width="160" height="26" as="geometry" />
        </mxCell>
        <mxCell id="BzAsRkTU_7AHKpCbSDMM-41" value="" style="line;strokeWidth=1;fillColor=none;align=left;verticalAlign=middle;spacingTop=-1;spacingLeft=3;spacingRight=3;rotatable=0;labelPosition=right;points=[];portConstraint=eastwest;" vertex="1" parent="BzAsRkTU_7AHKpCbSDMM-39">
          <mxGeometry y="104" width="160" height="8" as="geometry" />
        </mxCell>
        <mxCell id="BzAsRkTU_7AHKpCbSDMM-46" value="+ item: attribute" style="text;strokeColor=none;fillColor=none;align=left;verticalAlign=top;spacingLeft=4;spacingRight=4;overflow=hidden;rotatable=0;points=[[0,0.5],[1,0.5]];portConstraint=eastwest;" vertex="1" parent="BzAsRkTU_7AHKpCbSDMM-39">
          <mxGeometry y="112" width="160" height="26" as="geometry" />
        </mxCell>
        <mxCell id="BzAsRkTU_7AHKpCbSDMM-45" value="+ vector&lt;byte&gt; deserialize()" style="text;strokeColor=none;fillColor=none;align=left;verticalAlign=top;spacingLeft=4;spacingRight=4;overflow=hidden;rotatable=0;points=[[0,0.5],[1,0.5]];portConstraint=eastwest;" vertex="1" parent="BzAsRkTU_7AHKpCbSDMM-39">
          <mxGeometry y="138" width="160" height="26" as="geometry" />
        </mxCell>
        <mxCell id="BzAsRkTU_7AHKpCbSDMM-47" value="Message" style="swimlane;fontStyle=1;align=center;verticalAlign=top;childLayout=stackLayout;horizontal=1;startSize=26;horizontalStack=0;resizeParent=1;resizeParentMax=0;resizeLast=0;collapsible=1;marginBottom=0;" vertex="1" parent="1">
          <mxGeometry x="1504" y="429" width="160" height="86" as="geometry" />
        </mxCell>
        <mxCell id="BzAsRkTU_7AHKpCbSDMM-94" value="" style="endArrow=open;endFill=1;endSize=12;html=1;entryX=0.439;entryY=1.008;entryDx=0;entryDy=0;entryPerimeter=0;" edge="1" parent="BzAsRkTU_7AHKpCbSDMM-47" target="BzAsRkTU_7AHKpCbSDMM-45">
          <mxGeometry width="160" relative="1" as="geometry">
            <mxPoint x="70" as="sourcePoint" />
            <mxPoint x="70" y="-34" as="targetPoint" />
          </mxGeometry>
        </mxCell>
        <mxCell id="BzAsRkTU_7AHKpCbSDMM-48" value="- MessageHeader" style="text;strokeColor=none;fillColor=none;align=left;verticalAlign=top;spacingLeft=4;spacingRight=4;overflow=hidden;rotatable=0;points=[[0,0.5],[1,0.5]];portConstraint=eastwest;" vertex="1" parent="BzAsRkTU_7AHKpCbSDMM-47">
          <mxGeometry y="26" width="160" height="26" as="geometry" />
        </mxCell>
        <mxCell id="BzAsRkTU_7AHKpCbSDMM-51" value="- body" style="text;strokeColor=none;fillColor=none;align=left;verticalAlign=top;spacingLeft=4;spacingRight=4;overflow=hidden;rotatable=0;points=[[0,0.5],[1,0.5]];portConstraint=eastwest;" vertex="1" parent="BzAsRkTU_7AHKpCbSDMM-47">
          <mxGeometry y="52" width="160" height="26" as="geometry" />
        </mxCell>
        <mxCell id="BzAsRkTU_7AHKpCbSDMM-49" value="" style="line;strokeWidth=1;fillColor=none;align=left;verticalAlign=middle;spacingTop=-1;spacingLeft=3;spacingRight=3;rotatable=0;labelPosition=right;points=[];portConstraint=eastwest;" vertex="1" parent="BzAsRkTU_7AHKpCbSDMM-47">
          <mxGeometry y="78" width="160" height="8" as="geometry" />
        </mxCell>
        <mxCell id="BzAsRkTU_7AHKpCbSDMM-55" value="ThreadSafeQueue" style="swimlane;fontStyle=1;align=center;verticalAlign=top;childLayout=stackLayout;horizontal=1;startSize=26;horizontalStack=0;resizeParent=1;resizeParentMax=0;resizeLast=0;collapsible=1;marginBottom=0;" vertex="1" parent="1">
          <mxGeometry x="1194" y="229" width="160" height="138" as="geometry" />
        </mxCell>
        <mxCell id="BzAsRkTU_7AHKpCbSDMM-89" value="" style="endArrow=open;endFill=1;endSize=12;html=1;entryX=1;entryY=0.059;entryDx=0;entryDy=0;entryPerimeter=0;" edge="1" parent="BzAsRkTU_7AHKpCbSDMM-55" target="BzAsRkTU_7AHKpCbSDMM-33">
          <mxGeometry width="160" relative="1" as="geometry">
            <mxPoint y="10" as="sourcePoint" />
            <mxPoint x="160" y="10" as="targetPoint" />
          </mxGeometry>
        </mxCell>
        <mxCell id="BzAsRkTU_7AHKpCbSDMM-56" value="- deque&lt;T&gt;" style="text;strokeColor=none;fillColor=none;align=left;verticalAlign=top;spacingLeft=4;spacingRight=4;overflow=hidden;rotatable=0;points=[[0,0.5],[1,0.5]];portConstraint=eastwest;" vertex="1" parent="BzAsRkTU_7AHKpCbSDMM-55">
          <mxGeometry y="26" width="160" height="26" as="geometry" />
        </mxCell>
        <mxCell id="BzAsRkTU_7AHKpCbSDMM-59" value="- mutex" style="text;strokeColor=none;fillColor=none;align=left;verticalAlign=top;spacingLeft=4;spacingRight=4;overflow=hidden;rotatable=0;points=[[0,0.5],[1,0.5]];portConstraint=eastwest;" vertex="1" parent="BzAsRkTU_7AHKpCbSDMM-55">
          <mxGeometry y="52" width="160" height="26" as="geometry" />
        </mxCell>
        <mxCell id="BzAsRkTU_7AHKpCbSDMM-57" value="" style="line;strokeWidth=1;fillColor=none;align=left;verticalAlign=middle;spacingTop=-1;spacingLeft=3;spacingRight=3;rotatable=0;labelPosition=right;points=[];portConstraint=eastwest;" vertex="1" parent="BzAsRkTU_7AHKpCbSDMM-55">
          <mxGeometry y="78" width="160" height="8" as="geometry" />
        </mxCell>
        <mxCell id="BzAsRkTU_7AHKpCbSDMM-58" value="+ push (T)" style="text;strokeColor=none;fillColor=none;align=left;verticalAlign=top;spacingLeft=4;spacingRight=4;overflow=hidden;rotatable=0;points=[[0,0.5],[1,0.5]];portConstraint=eastwest;" vertex="1" parent="BzAsRkTU_7AHKpCbSDMM-55">
          <mxGeometry y="86" width="160" height="26" as="geometry" />
        </mxCell>
        <mxCell id="BzAsRkTU_7AHKpCbSDMM-61" value="+ T pop()" style="text;strokeColor=none;fillColor=none;align=left;verticalAlign=top;spacingLeft=4;spacingRight=4;overflow=hidden;rotatable=0;points=[[0,0.5],[1,0.5]];portConstraint=eastwest;" vertex="1" parent="BzAsRkTU_7AHKpCbSDMM-55">
          <mxGeometry y="112" width="160" height="26" as="geometry" />
        </mxCell>
        <mxCell id="BzAsRkTU_7AHKpCbSDMM-62" value="GUI" style="swimlane;fontStyle=1;align=center;verticalAlign=top;childLayout=stackLayout;horizontal=1;startSize=26;horizontalStack=0;resizeParent=1;resizeParentMax=0;resizeLast=0;collapsible=1;marginBottom=0;" vertex="1" parent="1">
          <mxGeometry x="534" y="229" width="160" height="86" as="geometry" />
        </mxCell>
        <mxCell id="BzAsRkTU_7AHKpCbSDMM-93" value="" style="endArrow=open;endFill=1;endSize=12;html=1;entryX=0.998;entryY=0.114;entryDx=0;entryDy=0;entryPerimeter=0;" edge="1" parent="BzAsRkTU_7AHKpCbSDMM-62" target="H1896AjHUctSjdvz1oI7-14">
          <mxGeometry width="160" relative="1" as="geometry">
            <mxPoint y="10" as="sourcePoint" />
            <mxPoint x="40" y="10" as="targetPoint" />
          </mxGeometry>
        </mxCell>
        <mxCell id="BzAsRkTU_7AHKpCbSDMM-66" value="- Connection" style="text;strokeColor=none;fillColor=none;align=left;verticalAlign=top;spacingLeft=4;spacingRight=4;overflow=hidden;rotatable=0;points=[[0,0.5],[1,0.5]];portConstraint=eastwest;" vertex="1" parent="BzAsRkTU_7AHKpCbSDMM-62">
          <mxGeometry y="26" width="160" height="26" as="geometry" />
        </mxCell>
        <mxCell id="BzAsRkTU_7AHKpCbSDMM-63" value="- vector&lt;Dice&gt;" style="text;strokeColor=none;fillColor=none;align=left;verticalAlign=top;spacingLeft=4;spacingRight=4;overflow=hidden;rotatable=0;points=[[0,0.5],[1,0.5]];portConstraint=eastwest;" vertex="1" parent="BzAsRkTU_7AHKpCbSDMM-62">
          <mxGeometry y="52" width="160" height="26" as="geometry" />
        </mxCell>
        <mxCell id="BzAsRkTU_7AHKpCbSDMM-64" value="" style="line;strokeWidth=1;fillColor=none;align=left;verticalAlign=middle;spacingTop=-1;spacingLeft=3;spacingRight=3;rotatable=0;labelPosition=right;points=[];portConstraint=eastwest;" vertex="1" parent="BzAsRkTU_7AHKpCbSDMM-62">
          <mxGeometry y="78" width="160" height="8" as="geometry" />
        </mxCell>
        <mxCell id="BzAsRkTU_7AHKpCbSDMM-76" value="" style="endArrow=open;endFill=1;endSize=12;html=1;" edge="1" parent="1">
          <mxGeometry width="160" relative="1" as="geometry">
            <mxPoint x="904" y="579" as="sourcePoint" />
            <mxPoint x="984" y="579" as="targetPoint" />
          </mxGeometry>
        </mxCell>
        <mxCell id="BzAsRkTU_7AHKpCbSDMM-87" value="" style="endArrow=open;endFill=1;endSize=12;html=1;" edge="1" parent="1">
          <mxGeometry width="160" relative="1" as="geometry">
            <mxPoint x="164.07999999999998" y="857" as="sourcePoint" />
            <mxPoint x="164" y="889" as="targetPoint" />
          </mxGeometry>
        </mxCell>
        <mxCell id="BzAsRkTU_7AHKpCbSDMM-75" value="Extends" style="endArrow=block;endSize=16;endFill=0;html=1;entryX=1.002;entryY=0.096;entryDx=0;entryDy=0;entryPerimeter=0;exitX=-0.007;exitY=0.052;exitDx=0;exitDy=0;exitPerimeter=0;" edge="1" parent="1" source="BzAsRkTU_7AHKpCbSDMM-15" target="BzAsRkTU_7AHKpCbSDMM-6">
          <mxGeometry width="160" relative="1" as="geometry">
            <mxPoint x="1244" y="569" as="sourcePoint" />
            <mxPoint x="1404" y="569" as="targetPoint" />
          </mxGeometry>
        </mxCell>
        <mxCell id="BzAsRkTU_7AHKpCbSDMM-88" value="" style="endArrow=open;endFill=1;endSize=12;html=1;entryX=0.563;entryY=0;entryDx=0;entryDy=0;entryPerimeter=0;" edge="1" parent="1" target="BzAsRkTU_7AHKpCbSDMM-15">
          <mxGeometry width="160" relative="1" as="geometry">
            <mxPoint x="1284" y="367" as="sourcePoint" />
            <mxPoint x="1444" y="367" as="targetPoint" />
          </mxGeometry>
        </mxCell>
        <mxCell id="BzAsRkTU_7AHKpCbSDMM-90" value="" style="endArrow=open;endFill=1;endSize=12;html=1;entryX=-0.002;entryY=0.063;entryDx=0;entryDy=0;entryPerimeter=0;" edge="1" parent="1" target="BzAsRkTU_7AHKpCbSDMM-33">
          <mxGeometry width="160" relative="1" as="geometry">
            <mxPoint x="694" y="239" as="sourcePoint" />
            <mxPoint x="724" y="239" as="targetPoint" />
          </mxGeometry>
        </mxCell>
        <mxCell id="BzAsRkTU_7AHKpCbSDMM-95" value="Use" style="endArrow=open;endSize=12;dashed=1;html=1;" edge="1" parent="1">
          <mxGeometry width="160" relative="1" as="geometry">
            <mxPoint x="1354" y="239" as="sourcePoint" />
            <mxPoint x="1504" y="239" as="targetPoint" />
          </mxGeometry>
        </mxCell>
      </root>
    </mxGraphModel>
  </diagram>
</mxfile>
